<?xml version="1.0" encoding="utf-8"?>
<!-- Generator: Adobe Illustrator 26.0.2, SVG Export Plug-In . SVG Version: 6.00 Build 0)  -->
<svg version="1.1" id="Calque_1" xmlns="http://www.w3.org/2000/svg" xmlns:xlink="http://www.w3.org/1999/xlink" x="0px" y="0px"
	 viewBox="0 0 384 384" style="enable-background:new 0 0 384 384;" xml:space="preserve">
<style type="text/css">
	.st0{fill:#FFFFFF;}
</style>
<path class="st0" d="M263.5,0c6.9,1.8,13.5,4.2,18.8,9.3c7.1,6.8,11,15.1,11.1,24.9c0.1,9.7,0,19.4,0,29c2.9,0.9,5.5,1.6,8.1,2.7
	c21.3,8.7,28.9,35.8,15.1,54.1c-1.7,2.2-3.6,3.8-6.6,3.2c-4.3-0.8-5.7-5.4-2.8-9.4c4.9-6.7,6.4-14.1,4.1-22
	c-2.6-8.7-8.6-14.3-17.8-16.9c0,9.6,0.1,18.6,0,27.7c-0.1,11.5,0.6,23.1-0.9,34.4c-3.3,25-17.4,42.1-40.8,51.5
	c-3.8,1.5-4.7,3.4-3.4,7.3c2.9,0,6-0.1,9.1,0c11.1,0.5,22.4-0.3,33.2,1.7c34.5,6.5,59.6,36.3,60.2,71.4c0.6,35.8,0.2,71.6,0.2,107.4
	c0,4.8-2.1,6.8-6.9,6.8c-69,0-138,0.1-207-0.1c-3.9,0-7.7-0.1-11.6,0c-17.2,0.4-34.4,0.1-51.7,0.2c-2.9,0-5-1.1-6.6-3.5
	c-8-11.8-16.2-23.4-23.9-35.3c-15.6-24-11.8-59.9,8.4-80.3c14-14.2,27.9-28.6,42.2-42.5c16.1-15.7,35.9-23.4,58-25.5
	c4.3-0.4,7,1.7,7.2,5.2c0.2,3.4-2.3,5.6-6.6,6c-21.3,2.2-40,10-54.6,26.3c-3.5,3.9-7.2,7.6-11.3,11.9c10.2,9.4,20.2,18.7,30.7,28.4
	c5.9-5.1,13-11.1,19.9-17.3c0.8-0.7,0.9-2.3,1-3.5c0.4-4,0.5-8,0.8-11.9c0.3-4.1,2.6-6.5,5.9-6.2c3.3,0.2,5.5,2.9,5.3,6.9
	c-0.7,11.8-1.6,23.6-2.4,35.5c-1.7,24.4-3.3,48.8-5,73.2c-0.5,7-0.9,13.9-1.4,21.2H303c-0.5-7.8-1.1-15.5-1.6-23.2
	c-1.9-26.1-3.8-52.2-5.8-78.4c-0.2-2.7-0.5-5.5-0.6-8.2c-0.2-3.9,2.1-6.6,5.4-6.7c3.2-0.1,5.5,2.3,5.8,6.1
	c0.6,7.3,1.1,14.6,1.7,22.2h31.4c6.3-50.6-34-80.2-69.4-76.1c-0.6,4.2-1,8.4-1.9,12.5c-5.8,24.4-30.9,40.2-55.6,35.1
	c-24.7-5.2-41.3-29.2-37.2-53.8c0.6-3.5,2.5-5.3,6.1-5.3h14.1c1.2-3.9,0.5-5.8-3.4-7.3c-23.2-9.2-36.9-26.3-41-51
	c-0.3-2-0.6-3.5-3.2-4.2c-14-3.5-23.3-12.4-26.6-26.5s1-26.1,11.9-35.7c0.4-0.3,0.7-0.7,1.9-1.8c-0.9-0.5-1.9-0.8-2.6-1.5
	c-11.1-11.1-14.9-24.4-10.6-39.4c4.3-15.1,14.8-24.1,29.9-27.8c0.8-0.2,1.6-0.5,2.4-0.8C190.6,0,227,0,263.5,0L263.5,0z M161.6,79.5
	c0,16.8-0.4,33.8,0.1,50.7c0.5,19.1,9.3,34,25.7,43.8c17.2,10.3,36.3,9.8,54.8,5.7c23.9-5.2,39.8-26.5,40-51c0.2-24.2,0-48.4,0-72.6
	c0-1-0.1-1.9-0.2-3.1C241.9,61.9,202,70.6,161.6,79.5z M282.2,35.9c-0.1-14.7-10-24.6-24.7-24.6c-32.4,0-64.9-0.1-97.3,0
	c-11.8,0-20.7,5.4-25.9,16c-5,10.3-3.9,20.5,3.1,29.6c7.4,9.4,17.4,12.6,29,10.1c36.8-8,73.5-16.1,110.2-24.2
	C283.3,41.2,282,42.7,282.2,35.9z M131.7,349.2c1.4-20.2,2.7-40.3,4-60.5c-1.3-0.1-2-0.3-2.8-0.3c-15.8,0-31.7,0-47.5,0
	c-5.3,0-7.3,2.1-7.4,7.6v45.6c0,5.8,2,7.7,8,7.7h41.9C129.2,349.4,130.3,349.3,131.7,349.2L131.7,349.2z M77.9,254.4
	c-5.3,5.2-11.5,11.2-17.6,17.2c-17.2,16.8-20.4,48-6.9,68c6.8,10,13.7,20,20.4,30c1.2,1.9,2.5,2.6,4.8,2.6c11-0.1,22,0,32.9-0.1
	c0.9,0,1.8-0.1,3.2-0.3c-2.5-3.2-4.6-6.2-7-8.8c-1.1-1.2-3-2.1-4.6-2.2c-5.9-0.3-11.7-0.1-17.6-0.1c-11.2-0.1-18.4-7-18.5-18.1
	c-0.1-15.7,0-31.4,0-47.1c0-4.4,1.1-8.4,3.9-11.8c3.7-4.4,8.5-6.3,14.2-6.3h17.4C93.7,269.2,85.9,261.9,77.9,254.4L77.9,254.4z
	 M339.5,372c0-25.7,0-51.1,0-76.6c-10.3,0-20.3,0-30.7,0c1.9,25.7,3.8,51.1,5.6,76.6H339.5z M186.1,207.4
	c-1.3,12.2,6,25.7,17.7,32.4c13,7.4,26.1,7,38.5-1.3c10.7-7.3,15.9-17.7,15.9-30.9c-3.6,0-6.7,0-9.9,0c-2.4,17.2-10.8,26.7-24,27.6
	c-6.3,0.4-12.2-0.8-17.4-4.5c-7.9-5.6-11.3-13.6-11.3-23.1C192.2,207.4,189.3,207.4,186.1,207.4L186.1,207.4z M207.3,192.8
	c-0.1,1-0.2,1.7-0.2,2.5c0,5.1-0.1,10.2,0.1,15.3c0.3,7.2,6,12.7,13.3,13.2c7.6,0.5,15-4.3,15.8-11.3c0.7-6.5,0.2-13.1,0.2-19.7
	C226.7,192.8,217.1,192.8,207.3,192.8L207.3,192.8z M150.1,122.2c0-14.9,0-29.5,0-44c-3.1-2.1-5.9-1.7-8.3,0.6
	c-2.3,2.1-4.7,4.2-6.4,6.7C126.1,99.5,134.1,119.6,150.1,122.2z M120.4,360.8c3.4,4.2,6.2,7.9,9.7,12.2c0.4-4.7,0.6-8.4,0.9-12.2
	C127.4,360.8,124.4,360.8,120.4,360.8z M131.3,276.9h5.3c0-1.6,0-2.8,0-4.5C134.7,274,133.3,275.2,131.3,276.9z"/>
<path class="st0" d="M269.4,294.3c3.9,3.4,7.2,6.2,10.4,9.2c3.3,3,3.8,6.2,1.4,8.8c-2.3,2.4-5.8,2.3-9-0.5
	c-3.6-3.1-7.1-6.2-10.9-9.5c-4,3.5-7.9,7-11.9,10.4c-2.2,1.9-4.6,3-7.5,1.3c-3.4-2.1-3.8-6.2-0.6-9.2c3.6-3.4,7.4-6.6,11.2-9.8
	c-0.5-0.6-0.6-1-0.9-1.2c-10.3-6-9.5-16.1-9.2-25.8c0.2-5.5,5.2-10.3,10.8-10.6c5.3-0.3,10.7-0.3,16.1,0c6.4,0.4,11.3,6.2,11.1,12.8
	c0,0.7-0.2,1.5-0.2,2.2C280.5,281.5,279.3,289.8,269.4,294.3L269.4,294.3z M262.3,287c1.9-2.4,4.7-4.8,6.2-7.8
	c1.1-2.3,0.7-5.4,0.6-8.1c0-0.9-1.4-2.4-2.2-2.5c-3.7-0.3-7.5-0.2-11.2,0c-0.7,0-1.9,1.2-2,1.9C253.2,277.3,253.8,283.8,262.3,287z"
	/>
<path class="st0" d="M220.6,164.1c-7.6-0.2-14.5-3.5-18.8-11.2c-2-3.6-1.3-6.7,1.6-8.4s5.8-0.7,8.1,2.9c4.9,7.7,15.7,7.7,20.5,0.1
	c2.4-3.8,5.4-4.8,8.4-2.9c2.8,1.8,3.4,4.9,1.3,8.5C237.3,160.9,230.3,164.1,220.6,164.1L220.6,164.1z"/>
<path class="st0" d="M213.3,120.6c1-5.5,1.9-11.6,3.2-17.7c0.6-3.1,3.5-4.8,6.5-4.1c3.1,0.7,4.8,2.9,4.4,6
	c-0.9,6.1-1.9,12.3-3.3,18.3c-0.7,3.1-3,4.8-6.4,4.4C214.7,127.1,213.1,124.7,213.3,120.6z"/>
<path class="st0" d="M109,310.8c-3.5,0-7,0.1-10.5,0c-3.3-0.1-5.6-2.2-5.8-5.1c-0.2-3.1,2-5.8,5.4-5.9c7.2-0.2,14.5-0.2,21.7,0
	c3.4,0.1,5.6,2.8,5.4,5.9c-0.2,3-2.4,5-5.8,5.1S112.5,310.8,109,310.8z"/>
</svg>
