<?xml version="1.0" encoding="utf-8"?>
<!-- Generator: Adobe Illustrator 26.0.2, SVG Export Plug-In . SVG Version: 6.00 Build 0)  -->
<svg version="1.1" id="Calque_1" xmlns="http://www.w3.org/2000/svg" xmlns:xlink="http://www.w3.org/1999/xlink" x="0px" y="0px"
	 viewBox="0 0 317.4 317" style="enable-background:new 0 0 317.4 317;" xml:space="preserve">
<style type="text/css">
	.st0{fill:#FFFFFF;}
</style>
<g>
	<path class="st0" d="M317.4,185.8c-1.7,0.6-3.6,1.7-5.3,1.7c-74.5,0.1-149,0.1-223.4,0.1c-4.6,0-5.5-0.9-5.5-5.4
		c0-10.2-0.1-20.5,0.1-30.6c0-1.7,0.5-3.5,1.2-5c6.6-12.8,13.4-25.6,20-38.4c1.2-2.3,2.7-3.3,5.4-3.2c3.8,0.2,7.6,0,11.8,0
		c0-6.5,0-12.8,0-19.6c-7,0.7-13.9,1-20.6,2.2c-19.5,3.6-38.4,2.3-56.9-5.1c-1-0.4-2-0.6-3-0.9c-2.2-0.7-3.6-0.3-5.4,1.7
		c-1.7,2-4.7,3.6-7.3,3.8c-6,0.6-11.9,0.4-18,0.3C4.1,87.4,0,83.1,0,76.6c0-18,0.1-35.9,0.2-53.9C0.2,15.1,4.3,11.1,11.9,11
		c5.3,0,10.5-0.1,15.8,0c6.4,0,10.7,4.3,10.7,10.8c-0.1,16.1-0.2,32.2-0.2,48.4c0,1.2,0,2.5,0,3.5c18.8,7.1,37.7,11.4,57.9,8
		c11.4-2,23.2-2.2,34.9-2.8c7.5-0.4,12.4-4.2,12.3-10.5c0-5.5-4.3-10-10-10.1c-9.1-0.1-18.2,0.2-27.2,0c-1.4,0-3.2-1-4-2.1
		c-1.4-2.2,0.7-4.6,3.9-4.6c5.1-0.1,10.4,0,16,0c0-2.7,0-5.1,0-7.5c0-5,0.7-5.6,5.5-5.6c13.9,0,27.9,0,41.8,0c1.1,0,2.2,0,3.8,0
		c-3-8.5-8.1-14.2-16.5-16.6c-14.1-4.1-28.2-7.9-42.3-11.9c-5.9-1.7-11.8-3.6-17.9-2.4c-3.2,0.6-6.5,1.5-9.5,2.7
		c-5.6,2.2-11.2,4.7-16.8,7.1c-2.3,1-4.4,1-5.4-1.6c-1-2.5,0.6-3.8,2.8-4.7C76.1,7.6,84.7,4.1,93.4,1c2.2-0.8,4.6-0.7,7-1
		c0.2,0,0.4,0,0.6,0c3.7,0.7,7.5,1.2,11.2,2.2c15,4.1,30,8.4,45,12.6c12.2,3.4,19.5,11.4,22.9,23.6c1.1,0,2.2,0,3.5,0
		c29.1,0,58.1,0,87.1,0c4.5,0,5.2,0.7,5.2,5.2c0,19.2,0,38.4,0,57.6c0,1.2,0,2.4,0,3.9c5,0,9.5,0.2,14-0.1c3.2-0.2,5.1,1.1,6.5,4
		c6.9,13.3,13.9,26.5,21,39.7C317.4,161.1,317.4,173.5,317.4,185.8z M310.5,153.3c-73.7,0-147,0-220.4,0c0,9.3,0,18.3,0,27.3
		c73.5,0,146.9,0,220.4,0C310.5,171.5,310.5,162.5,310.5,153.3z M269.2,91.3c0-3.1-0.1-6.1,0-9.1c0.1-2.2-0.5-3.1-2.8-3.8
		c-16.2-4.7-27.3-14.8-32.1-31.3c-0.5-1.7-1.2-2.1-2.8-2.1c-21.7,0.1-43.4,0.1-65.1,0c-1.7,0-2.5,0.6-3,2.3
		c-2.1,7.8-6.1,14.3-11.9,20c-0.7,0.7-1.3,1.7-1.5,2.6c-1.5,8.4-6.1,13.4-14.5,15.2c-2.2,0.5-4.5,0.5-6.6,0.7
		c-0.7,5.5-0.7,5.5,4.3,7c15.2,5,25.4,14.9,30.1,30.3c0.7,2.2,1.5,2.7,3.6,2.7c21.4-0.1,42.7-0.1,64.2-0.1c0.8,0,1.7-0.1,2.4-0.1
		C242.2,103.9,246.8,99.4,269.2,91.3z M92.3,146c72.1,0,143.9,0,215.8,0c-5.8-11.1-11.5-21.9-17.1-32.6c-0.3-0.6-0.9-1.4-1.4-1.4
		c-4.5-0.1-8.9-0.1-13.4-0.1c0,4.9,0,9.3,0,13.8c2.1,0,4,0,5.8,0c4.4,0,6.1,1,6,3.5c-0.1,2.3-1.8,3.3-6,3.3c-54.8,0-109.7,0-164.6,0
		c-0.7,0-1.4,0-2.2,0c-2.2-0.1-3.6-1.2-3.6-3.4c0-2.2,1.4-3.3,3.6-3.4c2.1,0,4.1,0,6.3,0c0-4.7,0-9.1,0-13.8
		c-3.7,0-7.5-0.7-10.8,0.3c-1.9,0.7-2.9,4.2-4.2,6.5c-0.5,0.8-0.8,1.7-1.3,2.5C101.1,129.4,96.8,137.6,92.3,146z M7,49.6
		c-0.1,0-0.1,0-0.2,0c0,8.8,0,17.6,0,26.3c0,3.9,1.1,4.9,5,4.9c4.9,0,9.7,0,14.6-0.1c3.9-0.1,5.1-1.1,5.1-4.9
		c0.1-17.9,0.2-35.8,0.2-53.6c0-3.2-1.2-4.4-4.6-4.4c-4.7,0-9.5,0-14.2,0c-5,0-5.8,0.8-5.9,5.7C6.9,32.2,7,40.9,7,49.6z M269.2,98.8
		c-11.8,1.7-26.3,13.8-28,26.7c9.3,0,18.5,0,27.8,0c0.1-0.9,0.2-1.6,0.2-2.3C269.2,115.2,269.2,107.2,269.2,98.8z M156.7,125.7
		c-1.5-11.8-15.7-25.3-27.9-26.8c0,8.9,0,17.6,0,26.6c0.6,0.1,0.9,0.2,1.3,0.2C139,125.7,147.7,125.7,156.7,125.7z M269,45.1
		c-9,0-17.7,0-26.3,0c-0.5,0-1,0.1-1.5,0.2c1,11.3,17.1,26.6,27.8,26.4C269,62.9,269,54.2,269,45.1z M148.4,60.5
		c4.4-4.1,8.1-11.3,8.1-15.2c-9.2,0-18.5,0-27.8,0c0,1.2,0,2.1,0,3.1c0,0.9,0.2,1.8,0.2,2.7C142.2,52.8,143.5,53.4,148.4,60.5z"/>
	<path class="st0" d="M97.2,310.1c68.7,0,137.2,0,206.1,0c0-1.3,0-2.6,0-3.7c0-25.9,0-51.8,0-77.8c0-4.4,1-6.1,3.5-6
		c2.4,0.1,3.2,1.7,3.2,5.9c0,27.6,0,55.2,0,82.7c0,5.2-0.6,5.9-5.9,5.9c-69.3,0-138.6,0-208,0c-5.1,0-5.8-0.7-5.8-5.6
		c0-34.8,0-69.7,0-104.4c0-0.8-0.3-1.9,0.1-2.4c0.9-1.2,2.1-2.9,3.2-2.9s2.5,1.6,3.3,2.8c0.5,0.7,0.2,2,0.2,3.1c0,33,0,65.9,0,98.9
		C97.2,307.4,97.2,308.7,97.2,310.1z"/>
	<path class="st0" d="M201.7,219.1c4.9-6.7,11.9-9.9,20.9-8c10.1,2.2,16.5,8.7,19.1,18.6c2.2,8.5,0.3,16.6-3.8,24.2
		c-5.4,9.9-13.3,17.6-22.4,24.1c-4.1,3.1-8.4,5.9-12.9,8.4c-1.2,0.7-3.6,0.9-4.8,0.2c-11.1-6.8-21.3-14.7-28.9-25.4
		c-6.5-9.2-10.4-19.2-8.4-30.8c2.5-14.3,16.4-23.7,29.2-19.1C194,213,197.5,216.3,201.7,219.1z M235.6,239.7
		c0.2-9.6-3.1-16.1-8.7-19.6c-8.2-5.3-17.6-2.6-21.7,6.4c-0.4,0.8-0.7,1.7-1.1,2.6c-1.4,2.4-4.2,2.5-5.8,0.2
		c-0.6-0.8-0.9-1.8-1.4-2.7c-2.4-4.3-5.5-7.8-10.4-9c-8.4-2.1-17,4-19.1,13.4c-1.7,7.5,0.2,14.3,3.9,20.8
		c6.6,11.8,16.7,20.3,27.7,27.8c0.6,0.4,2,0.2,2.7-0.2c9.6-6,18.6-12.6,25.7-21.6C232.1,251.7,235.5,245.1,235.6,239.7z"/>
	<path class="st0" d="M13.4,223.1c0-1.4,0-2.7,0-3.9c0-14.3,0-28.7,0-43.1c0-1-0.2-2.2,0.2-3.1c0.7-1.1,2-2.6,2.9-2.6
		c1.2,0.1,2.5,1.3,3.3,2.4c0.5,0.7,0.2,2,0.2,3c0,16.1,0,32.2,0,48.4c0,5.1-0.7,5.7-5.7,5.7c-1.2,0-2.3-0.2-3.4,0.1
		c-1.4,0.3-3.2,0.8-3.8,1.8c-0.5,0.7,0.3,2.7,1.1,3.8c6.1,8.2,12.5,16.2,18.6,24.4c5.1,6.8,5.9,7.1,11.2-0.1
		c6-8,12.2-15.9,18.2-23.9c0.9-1.2,1.7-3.3,1.2-4.3c-0.5-1-2.7-1.7-4.1-1.7c-9.3,0.1-8.8-0.2-8.7-9c0-15,0-30,0-45
		c0-1-0.3-2.3,0.2-3.1c0.8-1.2,2.2-2.6,3.3-2.6c1.1,0,2.3,1.6,3.1,2.7c0.4,0.7,0.2,1.8,0.2,2.7c0,14.9,0,29.7,0,44.6
		c0,0.7,0,1.4,0,2.4c1.6,0.1,3,0.1,4.4,0.2c7.5,0.7,11.6,9.1,7.1,15.2c-7.5,10.1-15.2,20.1-22.9,30c-4,5.1-11,5.1-15,0.1
		c-7.8-9.9-15.4-20-23-30c-2.2-3-2.6-6.2-1-9.6c1.7-3.5,4.3-5.5,8.2-5.7C10.4,223.3,11.8,223.2,13.4,223.1z"/>
	<path class="st0" d="M53,15.9c2.5,0.1,4.2,1.9,4.1,4.4c0,2.4-1.9,4.3-4.3,4.3c-2.4,0-4.6-2.2-4.4-4.6C48.6,17.7,50.6,15.8,53,15.9z
		"/>
	<path class="st0" d="M306.6,201.8c2.4-0.1,4.4,1.7,4.6,4.1c0.2,2.4-2,4.6-4.4,4.6c-2.3,0-4.3-2-4.3-4.3
		C302.4,203.7,304.1,201.9,306.6,201.8z"/>
	<path class="st0" d="M199.1,108.7c-12.5,0-22.4-10.4-22.4-23.5c0-12.5,10.3-23.2,22.2-23.1c12.4,0.1,22.4,10.7,22.3,23.8
		C221.1,98.1,211,108.7,199.1,108.7z M182.8,85.3c0,9.5,7.2,17.2,16.1,17.3c8.7,0,16.1-7.9,16.1-17.1c0-9.7-7.3-17.5-16.3-17.5
		C190,68.2,182.8,75.9,182.8,85.3z"/>
</g>
</svg>
