<?xml version="1.0" encoding="utf-8"?>
<!-- Generator: Adobe Illustrator 25.4.1, SVG Export Plug-In . SVG Version: 6.00 Build 0)  -->
<svg version="1.1" id="Calque_1" xmlns="http://www.w3.org/2000/svg" xmlns:xlink="http://www.w3.org/1999/xlink" x="0px" y="0px"
	 viewBox="0 0 532 532" style="enable-background:new 0 0 532 532;" xml:space="preserve">
<style type="text/css">
	.st0{fill:#F47921;}
</style>
<path class="st0" d="M250,10c10.7,0,21.3,0,32,0c1.3,0.3,2.6,0.7,3.8,0.8c39.7,3,76.8,14.4,110.7,35.1
	c66.4,40.6,107.1,99.3,121.5,175.9c1.7,9.3,2.6,18.7,3.9,28.1c0,10.7,0,21.3,0,32c-0.3,1.3-0.7,2.6-0.8,3.9
	c-3.4,44.1-17,84.7-41.8,121.3c-40.8,60.3-97.1,97.5-168.8,110.9c-9.4,1.8-19.1,2.7-28.6,4c-10.7,0-21.3,0-32,0
	c-1.3-0.3-2.5-0.7-3.8-0.8c-51-4-96.9-21.6-137.1-53.1c-51.7-40.7-83.7-93.5-95.2-158.4c-1.6-9.1-2.6-18.4-3.8-27.6
	c0-10.7,0-21.3,0-32c0.4-3.3,0.8-6.5,1.2-9.8c6-55.3,27.2-104,64.6-145.3c39.5-43.7,88.4-70.9,146.6-81
	C231.5,12.3,240.8,11.3,250,10z M232.9,265c0,2.7,0,4.7,0,6.6c0,38.3,0,76.6,0,114.9c0,6.7,0.3,7,7.1,7c12.7,0,25.3,0,38,0
	c6.7,0,7-0.3,7-7c0-38.5,0-77,0-115.4c0-1.9,0-3.9,0-6.1c10.7,0,20.6-0.2,30.6,0.1c4.4,0.1,5.9-1.7,6.2-5.8
	c0.6-8.8,1.5-17.6,2.1-26.4c0.9-12.7,3.1-12.1-11.2-12c-9.1,0-18.2,0-27.7,0c0-8.8,0-17,0-25.1c0.1-8.7,4.2-12.9,12.8-13
	c7.3-0.1,14.7-0.1,22,0c3.7,0,5.4-1.4,5.4-5.4c-0.1-11.3-0.1-22.7,0-34c0-3.3-1.2-5-4.6-5c-15.2,0.1-30.3-0.4-45.5,0.4
	c-20.9,1.1-38.2,16.4-41.1,37.1c-1.8,12.8-0.8,25.9-1.1,38.9c0,1.9,0,3.8,0,6c-7.3,0-13.8,0.2-20.3-0.1c-4.3-0.2-6,1.2-5.9,5.7
	c0.2,11,0.2,22,0,33c-0.1,4.1,1.5,5.7,5.6,5.6C219,264.9,225.6,265,232.9,265z"/>
</svg>
