<?xml version="1.0" encoding="utf-8"?>
<!-- Generator: Adobe Illustrator 25.4.1, SVG Export Plug-In . SVG Version: 6.00 Build 0)  -->
<svg version="1.1" id="Calque_1" xmlns="http://www.w3.org/2000/svg" xmlns:xlink="http://www.w3.org/1999/xlink" x="0px" y="0px"
	 viewBox="0 0 532 532" style="enable-background:new 0 0 532 532;" xml:space="preserve">
<style type="text/css">
	.st0{fill:#F47921;}
</style>
<g>
	<path class="st0" d="M250,10c10.7,0,21.3,0,32,0c1.3,0.3,2.6,0.7,3.8,0.8c39.9,3,77.2,14.4,111.2,35.4
		c66.1,40.7,106.8,99.2,121,175.7c1.7,9.3,2.6,18.7,3.9,28.1c0,10.7,0,21.3,0,32c-0.4,3.3-0.9,6.6-1.2,9.8
		c-5.5,50.6-23.8,96.1-56.1,135.4c-40.2,49-91.6,79.4-154,90.7c-9.5,1.7-19.1,2.7-28.6,4c-10.7,0-21.3,0-32,0
		c-6.2-0.8-12.5-1.4-18.7-2.3c-47.2-6.7-89.7-24.7-126.5-55c-48.9-40.2-79.4-91.6-90.8-154c-1.7-9.5-2.7-19.1-4-28.6
		c0-10.7,0-21.3,0-32c0.4-3.3,0.8-6.6,1.2-9.8C17.1,185.9,37.6,138,73.8,97.1c39.8-45,89.3-72.9,148.6-83.2
		C231.5,12.3,240.8,11.3,250,10z M266.4,120c-21.2,0-42.3-0.4-63.5,0.1c-17,0.4-33.4,4.4-47.8,14.1c-24.1,16.2-34.4,40-34.9,67.9
		c-0.9,42.6-0.5,85.3-0.1,127.9c0.2,16.7,4.5,32.7,14,46.8c16.2,24,40.1,34.4,67.9,34.9c42.6,0.9,85.3,0.7,127.9,0
		c23.4-0.4,44.5-8.1,60.8-26c14.7-16.1,20.6-35.7,21.1-56.8c0.8-35,0.9-70,0.9-105c0-10.3-0.8-20.7-1.8-30.9
		c-4-39.7-32.3-68.5-72.1-71.9C314.8,119.2,266.5,119.4,266.4,120z"/>
	<path class="st0" d="M199.6,384.9c-31.4-1.9-51.5-21.1-52.4-52.6c-1.2-44.6-0.8-89.3,0-133.9c0.4-19.3,9.2-35.3,27.1-44.8
		c10.1-5.3,21.2-7.3,32.4-7.3c42,0,84-0.5,125.9,0.8c31.1,1,51.3,21.1,52.1,52.2c1.2,44.4,1.2,88.9,0,133.4
		c-0.8,30.7-21.2,50-51.8,52.2c-11.1,0.8-22.3,1.1-33.4,1.3c-11.2,0.2-22.3,0-33.5,0C266,386.5,221.7,386.3,199.6,384.9z
		 M341.4,265.9c-0.1-41.7-33.6-75.2-75.3-75.3c-41.8-0.1-75.7,33.7-75.6,75.5c0.1,41.7,33.6,75.2,75.3,75.3
		C307.6,341.5,341.5,307.7,341.4,265.9z M362,187.6c0-9.7-7.7-17.5-17.3-17.6c-9.9-0.1-17.8,7.6-17.8,17.5c0,9.7,7.6,17.5,17.3,17.6
		C354.1,205.2,362,197.4,362,187.6z"/>
	<path class="st0" d="M362,187.6c0,9.9-7.9,17.6-17.9,17.5c-9.7-0.1-17.3-7.9-17.3-17.6c0-9.9,7.9-17.7,17.8-17.5
		C354.4,170.1,362.1,177.9,362,187.6z"/>
	<path class="st0" d="M265.9,217c27,0,49,21.9,49,48.8c0.1,27.2-22,49.3-49.2,49.2c-26.9-0.1-48.8-22.1-48.8-49
		C217,239,239,217,265.9,217z"/>
</g>
</svg>
