<svg xmlns="http://www.w3.org/2000/svg" viewBox="0 0 445.28 610.72"><defs><style>.cls-1,.cls-2{fill:#f47921;}.cls-1{opacity:0.5;}.cls-3{fill:#fff;}</style></defs><g id="_1" data-name="1"><path class="cls-1" d="M370.21,264.72c-1.7,1.85-3,3.35-3.53,4a129.88,129.88,0,0,0-10.07,13.41c-10.35,2.54-23.9,5.85-36.07,15.61-1,.82-2.06,1.7-3,2.56-2.91,2.6-5.37,5.1-6.15,5.89l-.61.63c-9.07,9.41-13.66,17.29-17,22.44-15.85,24.34-27,22.92-36.49,43.15-4.27,9.07-5.35,16.37-6.49,23.77-6.19,39.95-15.26,79.46-21.83,119.35-2.4,14.62-6.19,36.59-11.51,63.6a46,46,0,0,1-7.18,4.58c-6.13,3.16-14.62,5.76-39.45,2.06-3.48-.51-7.29-1.15-11.46-1.93-4.33-.82-9-1.79-14.2-2.92-24.65-5.43-34.46-9.28-35.82-15.75a8.22,8.22,0,0,1,.13-3.72c6.64-27.38,35.76-143.86,35.76-143.86,4.24-20.12,7.29-36.43,9.05-46.15l-1.57-2c-9.1-11.84-26.84-35.24-38.7-66.39-1.25-3.28,0-.22-7.42-22.83,0,0-8.19-24.9-16.55-39.5l-.34-.59c-.77-1.27-2-3-7.42-10.11L76,221.64h0C61.94,203.1,54.81,193.2,52.37,180c-1-5.35-.79-9.08,1.54-10.91a4.9,4.9,0,0,1,1.5-.79c4.47-1.55,11.75,1.9,14.13,3,3.74,1.78,12.57,6.61,23.64,23.56,2.9,4.45,5.39,8.26,7.52,11.61,1.82,2.86,3.37,5.38,4.71,7.68A63.32,63.32,0,0,1,111,225.76c.84,2.47,2.91,9.05,7.62,10.12a6.34,6.34,0,0,0,5.06-1c2.74-2.1,2.25-6.61,2-8.71-1.45-11-3.12-20.26-4.78-28-4.53-21.17-9-30.67-9-30.67-7.16-15.16-14.91-27.6-16.73-44.88-.09-.92-.18-1.89-.22-2.88a26.34,26.34,0,0,1,0-2.81h0c.16-3.25,1-6.28,3.44-7.81,4.43-2.8,11.77.85,13.74,1.83,5.74,2.85,12.69,8.47,23.17,34.53,4.41,11,9.4,23.58,12.75,42.13.16.89.31,1.76.45,2.62A189,189,0,0,1,151,217a158.43,158.43,0,0,0,0-23.91,6.75,6.75,0,0,0,2.72,1.28,6.6,6.6,0,0,0,5.49-1.33c0-6.65-.22-14.28-.13-21.84v0c-7.09-39.2-15.27-56.15-15.27-56.15-3.31-6.89-6.72-13.28-9.78-19.74-.49-5.36-.08-11,3.78-13.71C143,78,151.6,81.51,152.66,82c4.57,1.92,11.87,6.69,20.13,31.94a173.73,173.73,0,0,1,4.69,18.49h0c1.71,8.24,3.73,19.47,6.08,35.09,2,13.19,2.61,20.93,2.61,20.93.44,5.4,1.41,18.87,8.19,20.88a7.3,7.3,0,0,0,1.24.22,5.8,5.8,0,0,0,1.83-.1c9.23-2.17,9.36-33.55,9.33-48.35,0-19.95-1.78-48.6,6.75-60.07.82-1.11,2.81-3.78,5.74-4.8q1.35,7.23,2.87,16c2.66,15.29,3.63,24.29,3.63,24.29.67,6.27,2.22,21.92,9.7,24a6.79,6.79,0,0,0,3.36,0c2.65-.77,4.53-3.91,5.84-8.44a277.52,277.52,0,0,1,.27,29.18c-1.33,28.15-3.75,43.76,3.9,64.56,3,8.15,7.38,16.65,16.15,20.7,8.37,3.88,16.32,1.64,29.06-1.2,38.78-8.66,61.45-13.46,73.13-3.66A24.07,24.07,0,0,1,370.21,264.72Z"/><path class="cls-1" d="M317.51,300.28a6.09,6.09,0,0,1-.17,1c-.68,2.59-3.06,4.2-6.59,5.51-9.61,3.55-27.78,4.82-43.51,17.54a105.67,105.67,0,0,0-8.72,8.09c-9,9.27-13.48,17-16.75,22.08-15.05,23.3-25.6,21.94-34.65,41.3-4.06,8.68-5.08,15.67-6.17,22.75-5.88,38.23-14.51,76-20.76,114.22-2,12.54-5.15,30.72-9.41,53l-.66,3.42c-.28,1.47-.57,3-.87,4.48a43.93,43.93,0,0,1-6.82,4.38c-7.49,3.89-18.68,6.91-61.82-2.65-23.4-5.19-32.72-8.87-34-15.06a7.85,7.85,0,0,1,.12-3.56c6.31-26.21,34-137.68,34-137.68,4-19.26,6.93-34.87,8.6-44.17L107.83,393c-8.63-11.33-25.47-33.72-36.73-63.53-1.18-3.13,0-.21-7-21.84,0,0-7.77-23.83-15.71-37.8-.16-.3-.31-.56-.31-.56-.74-1.22-1.94-2.85-7-9.68-17.28-23.11-25.71-33.4-28.34-47.86-.93-5.11-.76-8.68,1.46-10.43,3.91-3.09,12.3.92,14.84,2.14,3.55,1.7,11.93,6.31,22.43,22.54,9.63,14.87,14.44,22.3,16.88,29.58.8,2.36,2.76,8.66,7.23,9.68a6,6,0,0,0,4.81-.93c2.6-2,2.13-6.32,1.87-8.33A327.36,327.36,0,0,0,76,221.64h0c-3.65-15-6.84-21.82-6.84-21.82-5.14-11-10.59-20.44-13.69-31.56a67.59,67.59,0,0,1-2.19-11.39c-.49-4.66-.6-10.6,3.06-12.93,4.21-2.68,11.17.81,13,1.75,5.44,2.72,12,8.1,22,33a210.05,210.05,0,0,1,9.39,27.73c1,3.87,1.9,8,2.71,12.58a185.11,185.11,0,0,1,2.92,28.14s1.32-13.44-.92-33a200.84,200.84,0,0,0-4.17-23.89c-1.68-7.07-3.19-14.58-5.07-24.89h0c-1.38-7.57-3-16.64-5-28.15-1-5.54-2.35-14,1.27-18.33h0a6.89,6.89,0,0,1,1.39-1.3,7.09,7.09,0,0,1,1-.6h0c4.93-2.4,12.1.55,13,1,4.34,1.84,11.27,6.41,19.1,30.57.46,1.43,1,3.14,1.55,5.26,2.09,7.75,4.94,21,8.67,46,1.88,12.62,2.47,20,2.47,20,.41,5.16,1.33,18.05,7.77,20a6.15,6.15,0,0,0,2.91.12c8.77-2.07,8.9-32.1,8.87-46.27v-.52c0-6.65-.22-14.28-.13-21.84v0c.16-14.11,1.34-28,6.56-35.09.93-1.27,3.48-4.72,7.24-5a8,8,0,0,1,4.57,1.24h0a19.37,19.37,0,0,1,4.58,4.09,28.56,28.56,0,0,1,2.53,3.44,43.1,43.1,0,0,1,3.23,6.29h0c8.32,19.8,8.12,52.16,7.78,63.29,0,1.56-.1,2.71-.13,3.34-1.28,26.94-3.58,41.88,3.68,61.78,2.85,7.8,7,15.94,15.33,19.81,8,3.71,15.5,1.56,27.59-1.16,36.82-8.29,58.35-12.89,69.44-3.52C312.08,290.25,317.91,295.29,317.51,300.28Z"/><path class="cls-2" d="M433.07,228.36c-2.55,11.87-32.65,8.08-56.68,30.13-2.23,2-4.42,4.32-6.18,6.23s-3,3.35-3.53,4a129.88,129.88,0,0,0-10.07,13.41c-3.72,5.69-6.24,10.5-8.31,14.17-16.39,29-28.57,27.76-38.22,51.71-4.33,10.73-5.23,19.28-6.2,27.95-5.28,46.79-13.72,93.17-19.41,139.91-2.08,17.13-5.4,42.88-10.21,74.56A50.91,50.91,0,0,1,266.6,596c-8.47,5.05-21.2,9.18-71.15-.68-10.94-2.16-19.23-4.12-25.33-6.17-4.94-1.66-8.46-3.39-10.8-5.35a9.72,9.72,0,0,1-3.53-5.41,10.15,10.15,0,0,1,0-4.34c6.23-32.16,33.7-169,33.7-169,3.89-23.61,6.61-42.72,8.17-54.12l-1.78-2.3c-10.37-13.44-30.59-40-44.69-75.83-1.48-3.77,0-.26-8.93-26.3,0,0-9.86-28.69-19.52-45.38l-.38-.66c-.34-.57-.77-1.21-1.53-2.25-1.19-1.64-3.19-4.29-7-9.25-7.1-9.37-12.95-17-17.71-23.6h0c-9.18-12.76-14.35-22-16.71-33.49-1.27-6.19-1.21-10.54,1.28-12.76,2.76-2.48,7.7-1.58,11.7-.23h0c.87.29,1.68.6,2.42.91,1.27.51,2.32,1,3,1.31,4.15,1.92,14,7.2,26.66,26.52l4,6.13c9,13.74,13.81,21.5,16.52,29.19a33.1,33.1,0,0,0,3.34,7.33,11.89,11.89,0,0,0,2.62,2.88,6.75,6.75,0,0,0,2.72,1.28,6.6,6.6,0,0,0,5.49-1.33c2.91-2.55,2.21-7.79,1.82-10.23q-1-6.1-1.95-11.61v0c-7.09-39.2-15.27-56.15-15.27-56.15-3.31-6.89-6.72-13.28-9.78-19.74-4.67-9.82-8.54-19.79-10.13-31.9-.74-5.66-1.1-12.88,3-15.87,4.72-3.43,12.86.53,15,1.59,6.37,3.09,14.16,9.37,26.56,39.32,5.21,12.61,11.12,27.1,15.46,48.58.2,1,.39,1.94.57,2.9a236.69,236.69,0,0,1,3.88,31.24,187.93,187.93,0,0,0-.65-24.94h0a262.84,262.84,0,0,0-7.41-44.15c-3.83-14.8-7.1-31.26-13.64-64.17-1.48-7.46-3.68-19.21,2.3-24,5.48-4.41,15-.65,16.18-.17,5.06,2.06,13.2,7.33,23.14,36.42,2.32,6.8,5.77,18.94,10.86,46.05q1.35,7.23,2.87,16c2.66,15.29,3.63,24.29,3.63,24.29.67,6.27,2.22,21.92,9.7,24a6.79,6.79,0,0,0,3.36,0c2.65-.77,4.53-3.91,5.84-8.44,3.63-12.51,3-35.59,2.54-48.26-.78-23.25-3.73-56.55,5.16-70.26,1-1.58,3.81-5.89,8.12-6.34,4.95-.52,9.17,4.35,10.72,6.13,18.89,21.67,18.48,85.14,18.39,92.43-.42,32.85-2.48,51.13,6.64,75.06,3.57,9.38,8.67,19.11,18.38,23.49,9.28,4.18,17.87,1.26,31.66-2.55,42-11.61,66.55-18.1,79.66-7.15C426.64,215.18,434.46,221.87,433.07,228.36Z"/><path class="cls-3" d="M228.3,315.17h0c4-11.17,9.61-27.1,9.61-27.1l-2.17-3.95c.24-.19,1.91,2.64,3.27,2.33s1-3.05,2.2-7c1-3.26,1.79-6.26,2.51-9,1.27-4.89,2.13-8.69,3-12.44,2.33-10.51,3.5-15.77,3.82-17.63.5-2.85,4.7-29.06-11-40.07-9.06-6.38-23.94-7.29-33.19.51-8.93,7.52-8.75,19.86-8.68,24.51.14,10,4.24,17.33,7.66,23.49,1,1.86,3.66,6.41,12.77,16.85A219.82,219.82,0,0,0,253.5,299a99.43,99.43,0,0,0,13.6,8.51h0A28.68,28.68,0,0,0,284,289.13q-14.55-10.72-29.13-21.59l-7.18-5.36c-1.32,2.37-2.9,5.1-3.11,5s.12-.6.25-1a41.1,41.1,0,0,0,1.09-5.89c.61-5.27-13.88-19.12-16.39-17.18-.17.13-.15.23-1.2,3.39a11.21,11.21,0,0,1-.92,2.51c-.21-.05,1-3.36.25-7-.29-1.48-1-2.72-2.32-5.13-4.75-8.53-5.38-9.42-5.19-11,.28-2.32,1.63-5.47,4.1-6.13s5.15,1.12,6.64,3.06c4.09,5.32.69,14.73-3,24.88-1,2.9-1.7,4.34-3.16,7.81-5,11.83-9.59,24.88-18.85,51l0,.1a21.69,21.69,0,0,0,22.47,8.68Z"/></g></svg>