<?xml version="1.0" encoding="utf-8"?>
<!-- Generator: Adobe Illustrator 25.3.1, SVG Export Plug-In . SVG Version: 6.00 Build 0)  -->
<svg version="1.1" id="Calque_1" xmlns="http://www.w3.org/2000/svg" xmlns:xlink="http://www.w3.org/1999/xlink" x="0px" y="0px"
	 viewBox="0 0 574.5 484.5" style="enable-background:new 0 0 574.5 484.5;" xml:space="preserve">
<style type="text/css">
	.st0{opacity:0.5;fill:#EF7926;enable-background:new    ;}
	.st1{fill:#EF7926;}
</style>
<g id="_2">
	<path class="st0" d="M568.8,383.2c-1.5-3.6-5-5.3-5.8-5.7c-18.3-10.1-82-90.4-118.2-134.2C390.6,177.6,320.6,100,319,101.3
		c-0.2,0.2,0.8,2.4,2.5,2.9c8,2.1,32.3-29.2,25-51.1c-0.9-2.8-6.3-8.8-16.9-20.6c-11.6-12.9-17.5-19.4-21.5-20.9
		c-9.7-3.6-13.1,1.4-32.8-2.1c-9.3-1.7-12.2-2.3-12.2-2.3c-13.2-2.7-15.6-3.8-18.4-2.3c-6.5,3.6-6.9,14.2-6.9,16.8
		c-0.1,17.8,17.3,30.6,21.5,33.7c19.8,14.7,33,8.6,38.2,17.2c9.3,15.5-30.9,40.1-48.9,86.2c-19,48.8-9.2,111.6,23.7,143.2
		c2.5,2.5,5.2,4.6,8.1,6.5c4.9,3.1,10.1,5.6,15.6,7.5c25.1,8.1,39.5,11,48.8,15.1c25.4,11.4,36.4,43.7,48,77.6
		c4.9,14.2,13.1,27.2,16.9,41.7c1,3.8,3.6,14.3,12.6,21.5c1.9,1.6,4,2.9,6.2,3.9C478.1,497.5,579.5,409,568.8,383.2z"/>
	<path class="st0" d="M270,112c-13.6,7.8-29.8-2.8-33.7-5.4c-2.4-1.6-4.5-3.4-6.5-5.5c-0.2-0.5-0.5-1-0.7-1.5
		c-5.1-10.7-3.9-13.9-8.8-18.8c-2.8-2.8-6.3-4.7-10.2-5.7c-1.3-1.8-2.3-3.9-2.9-6c-2.8-9.9-0.4-23.6,9.2-30.6
		c5.1-3.7,10.4-4.3,13.8-4.6c1.7-0.2,15.5-1.3,26.1,7.7c7.5,6.4,4.5,10.4,14.5,26.8c1.6,2.5,2.9,4.6,4.1,6.3
		c4.5,6.3,6.7,7.8,7.4,12.9C283.4,96.5,278.6,107.2,270,112z"/>
	<path class="st0" d="M229.8,101.1l-1.1-1.2c-3.6-4-7.5-9.4-13.1-17c-2.4-3.2-4.1-5.6-5.5-7.7c3.8,1,7.3,3,10.2,5.7
		c4.9,4.8,3.7,8.1,8.8,18.8C229.4,100.1,229.6,100.6,229.8,101.1z"/>
	<path class="st0" d="M204.2,134.9c-1.7-1.6-3.3-3.3-4.7-5.2c-2.5-3.3-5.4-7.7-9.3-13.9c-1.9-2.9-3.3-5.1-4.3-6.9
		c3.9,0.7,7.4,2.8,10,5.8c3.3,3.7,3.2,6.4,5.4,12.9l0,0C202,129.6,202.9,132,204.2,134.9z"/>
	<path class="st0" d="M230.5,140.5c-10,6.6-22.1-2.4-25-4.5c-0.4-0.3-0.9-0.7-1.3-1.1l0,0c-1.3-2.9-2.2-5.3-2.9-7.3l0,0
		c-2.2-6.5-2.1-9.2-5.4-12.9c-2.6-3-6.1-5-10-5.8c-0.9-1.5-1.5-3.1-2-4.7c-2-8.4-0.3-20,6.8-25.9c2.9-2.3,6.5-3.7,10.2-3.9
		c3.1-0.3,6.2,0,9.1,0.8c3.8,1,7.3,3,10.2,5.7c4.9,4.8,3.7,8.1,8.8,18.8c0.2,0.5,0.5,1,0.7,1.5c0.4,0.8,0.8,1.6,1.2,2.4
		c5.4,10.2,7.9,10.7,8.5,16.2C240.5,127.3,236.9,136.3,230.5,140.5z"/>
	<path class="st0" d="M185.1,166.3c-0.4-0.3-0.7-0.6-0.9-0.8c-2.2-2-4.1-4.3-5.5-6.9c-1.8-2.9-3.9-6.7-6.7-11.6
		c-2.9-5.2-4.4-7.9-5-10.8c-0.1-0.6-0.2-1.1-0.3-1.7c2.6,1,4.9,2.7,6.7,4.8c3.9,4.4,3,7.4,6.8,16.9c0.5,1.2,1.1,2.6,1.8,4.1
		C183.2,162.8,184.2,164.8,185.1,166.3z"/>
	<path class="st0" d="M204.1,169.7c-7.2,5.4-15.7-0.7-19-3.4c-0.9-1.5-1.9-3.4-3.1-6.1c-0.7-1.5-1.3-2.8-1.8-4.1
		c-3.8-9.5-3-12.5-6.8-16.9c-1.8-2.1-4.1-3.7-6.7-4.8c-1.1-7.6,0.5-17.1,5.7-22.2c2.2-2.1,5.1-3.4,8.2-3.6c1.8-0.2,3.6-0.1,5.4,0.2
		c3.9,0.7,7.4,2.8,10,5.8c3.3,3.7,3.2,6.4,5.4,12.9l0,0c0.7,2,1.6,4.4,2.9,7.3l0,0c0.1,0.2,0.2,0.5,0.3,0.7c4.4,9.4,6.3,9.9,6.8,15
		C212,157.6,209.2,165.9,204.1,169.7z"/>
	<path class="st0" d="M181.6,194.3c-8,6.1-17.6-2.2-19.9-4.2c-0.2-0.2-0.5-0.4-0.7-0.7c-3.4-3.2-6.2-8.3-11.5-17.9
		c-2.9-5.2-4.4-7.9-5-10.8c-1.6-7.8-0.2-18.4,5.4-23.9c2.2-2.1,5.1-3.4,8.1-3.6c2.9-0.3,5.9,0.1,8.7,1.2c2.6,1,4.9,2.7,6.7,4.8
		c3.9,4.4,3,7.4,6.8,16.9c0.5,1.2,1.1,2.6,1.8,4.1c1.2,2.6,2.2,4.5,3.1,6.1c2.2,4,3.4,5.3,3.7,8.9
		C189.5,182.2,186.6,190.5,181.6,194.3z"/>
	<path class="st1" d="M229.1,99.7c0.2,0.5,0.5,1,0.7,1.5l-1.1-1.2L229.1,99.7z"/>
	<path class="st1" d="M199.6,129.7c0.6-0.7,1.2-1.4,1.8-2.1c0.7,2,1.6,4.4,2.9,7.3C202.5,133.3,200.9,131.6,199.6,129.7z"/>
	<path class="st1" d="M182,160.2c1.2,2.6,2.2,4.5,3.1,6.1c-0.4-0.3-0.7-0.6-0.9-0.8c-2.2-2-4.1-4.3-5.5-6.9c0.5-0.8,1.1-1.6,1.6-2.5
		C180.7,157.4,181.3,158.8,182,160.2z"/>
	<path class="st1" d="M469.2,180.2c-0.9,6.1-1.2,18.9-10,29.1c-10.7,12.5-29.4,16.4-34.3,13.8c-10,15.8-21.1,30.9-33.1,45.2
		c-31.8,37.3-55.5,43.8-64.3,45.2c-10.4,1.6-13.4-0.5-31.4,2.3c-12.9,2.2-25.7,5-38.3,8.4L109.9,457.5c-6.9-0.8-51.3-6.4-76.6-39.8
		C14.6,392.9,10,357.8,9.6,354.2c0,0,0-0.1,0-0.1l131-118.7c0,0,11.2-26.5,12.2-28.8c0.6-1.5,3.4-7.9,8.2-17.1
		c0.2,0.2,0.5,0.5,0.7,0.7c2.3,2,11.9,10.2,19.9,4.2c5-3.8,7.9-12.2,7.2-19.1c-0.4-3.6-1.5-4.9-3.7-8.9c3.3,2.7,11.8,8.9,19,3.4
		c5.1-3.8,7.9-12.2,7.2-19.1c-0.5-5-2.4-5.6-6.8-15c-0.1-0.2-0.2-0.5-0.3-0.7c0.4,0.4,0.9,0.7,1.3,1.1c2.9,2.1,14.9,11.1,25,4.5
		c6.3-4.1,9.9-13.2,9.1-20.7c-0.6-5.5-3.1-6-8.5-16.2c-0.4-0.8-0.9-1.6-1.2-2.4c1.9,2.1,4.1,4,6.5,5.5c3.9,2.5,20.1,13.1,33.7,5.4
		c8.5-4.9,13.4-15.6,12.3-24.5c-0.6-5.1-2.8-6.6-7.4-12.9c9.6-3.3,18.7-7.7,27.3-13.2c13.9-8.9,17.8-15,33.7-23
		c12.4-6.2,24.4-12.1,33.7-6.9c7,3.9,9.5,12.6,10.7,16.9c0.9,3,3.9,13.5-0.8,22.2c-0.7,1.4-1.6,2.7-2.6,3.8
		c5.2-1.1,9.8-1.5,15.1,0.2c4.7,1.5,8.9,4.4,12,8.2c4,5.1,6.8,12.9,4.9,19.8c-0.8,2.5-2,4.9-3.8,6.9c5.9-2.5,12.6-3.9,18.8-2.2
		c9.3,2.7,17.4,12.7,17.6,23.8c0.2,8.3-4,16.3-10.9,21.6c9.8-3.3,22.8-5.4,31.5,1.5c1.8,1.5,3.4,3.3,4.6,5.2
		C469.2,163.3,470.8,168.7,469.2,180.2z"/>
</g>
</svg>
