<svg id="_3" data-name="3" xmlns="http://www.w3.org/2000/svg" viewBox="0 0 578.04 735.32"><defs><style>.cls-1,.cls-2{fill:#ef7926;}.cls-2{opacity:0.5;}</style></defs><path class="cls-1" d="M193,264.51s.11.32.18.93C193,264.83,193,264.52,193,264.51Z"/><path class="cls-1" d="M539.49,402.5c-3.8,13.32-11.62,30.8-45.12,63.25-6.5,6.29-12.54,11.78-18.23,16.62q-3.9,3.33-7.58,6.26c-3.77-9.24-9.28-13.64-15.62-29.82-5.56-14.19-8.34-21.29-6.9-30.64.95-6.13,3.33-11.13.77-13.79-2.82-2.92-10.25-1.57-15.32,1.54-15.56,9.52-14.19,38.85-13.79,47.48.6,12.75,2.88,12.05,3.06,24.59.23,16-3.44,22.11-4.41,34.49,1,6.53,1.9,11.52,2.49,14.8.29,1.6.65,3.52,1.25,6,.26,1.1,1,4.06,2,7.32a108.45,108.45,0,0,0,4.81,11.87c-.16,0-3.43-5-6.34-12.21,0,0-2.45-6.07-6.47-25.36,0,0-1.07.36-2.5.95a32.32,32.32,0,0,0-4.59,2.24c-8.62,5.36-9.68,6.06-11.35,7.2-1.31.89-2.84,1.93-4.81,3.34-10.42,7.42-18.83,14.71-22.85,18.17-2.73,2.36-5.52,4.85-8.54,7.67q-3.53,3.29-7.08,6.76c-32.7,31.88-65.69,72.9-65.69,72.9-23.88-29.78-44.38-53-58.21-68.17C182.08,525,118.26,461,92.9,404.2A161,161,0,0,1,85.28,383c-7.16-24.8-10-50.45-5.36-77.36a207.4,207.4,0,0,1,4.59-21.7c3.49-12.4,9.31-26,20.39-38.31a87,87,0,0,1,16.55-14.31l0-.1c.27-1,.46-2,.6-2.82a2.38,2.38,0,0,1,0-.26,13.17,13.17,0,0,1,.68-3.24.33.33,0,0,1,.25-.2c.46-.06,1.15,1,2.2,4.21.95,2.94,2.21,7.7,3.88,15.14a150.29,150.29,0,0,1,3.94,19.61c3.49,26.34,2.24,60.62,2.24,60.62-.29,5.68-.87,14.41,3.57,16.85,3.77,2.06,9.27-1.42,10.22-2.05,4.94-3.25,7.42-8.73,9.44-18,2.35-10.78,2.24-18.17,2.54-27.51.15-4.83,1.07-33,3.34-33.14,1.66-.09,5,14.91,4.91,29.64,0,.49-.28,8.15-.83,23.46-.26,7.31-.26,7.27-.27,7.47-.45,18.63-.76,28.09,3.34,30.32,4.55,2.47,12.3-1.64,16.34-6.13a21.82,21.82,0,0,0,5.1-12.25c2.35-20,.91-60.91.18-67.5a151.8,151.8,0,0,1,6,45c-.1,8.82-.91,20.5,6.13,30.64,1.29,1.86,5.16,7.43,9.63,7,4.19-.42,6.76-5.93,7.73-8,10.29-22.08-3.24-73.2-2-73.54.38-.11,2.43,5.75,4.08,11.24a108.18,108.18,0,0,1,3.75,14.66c2,12.34.42,20.81,5.34,26.23a8,8,0,0,0,1.12,1c4,3,10.35,3.68,14.3,1,4.13-2.77,4.76-8.6,4.43-21.45-.3-11.76-.51-19.95-1.63-28.89a111.44,111.44,0,0,0-2.8-16c-3.53-13.71-9.26-23.31-14.81-32.38,24.93,9.66,45,26.32,57.71,43.85,3.72,5.14,18.62,26.62,23.92,52.39.53,2.61,1.83,9.43,3,15.59s2.19,11.68,2.19,11.68,15.71-27,23.91-38c18.63-25.06,57.5-47.13,100.18-43.16,7.79.72,52,5.67,79.66,45.19C553.49,350.16,541.66,394.87,539.49,402.5Z"/><path class="cls-2" d="M249.19,320.7c-3.95,2.66-10.28,2-14.3-1a8,8,0,0,1-1.12-1c-4.92-5.42-3.31-13.89-5.34-26.23a108.18,108.18,0,0,0-3.75-14.66c-1.65-5.49-3.7-11.35-4.08-11.24-1.2.34,12.33,51.46,2,73.54-1,2.07-3.54,7.58-7.73,8-4.47.45-8.34-5.12-9.63-7-7-10.14-6.23-21.82-6.13-30.64a151.8,151.8,0,0,0-6-45c-.07-.61-.13-.93-.18-.93s0,.32.18.93c.73,6.59,2.17,47.48-.18,67.5a21.82,21.82,0,0,1-5.1,12.25c-4,4.49-11.79,8.6-16.34,6.13-4.1-2.23-3.79-11.69-3.34-30.32,0-.2,0-.16.27-7.47.55-15.31.83-23,.83-23.46.09-14.73-3.25-29.73-4.91-29.64-2.27.11-3.19,28.31-3.34,33.14-.3,9.34-.19,16.73-2.54,27.51-2,9.25-4.5,14.73-9.44,18-1,.63-6.45,4.11-10.22,2.05-4.44-2.44-3.86-11.17-3.57-16.85,0,0,1.25-34.28-2.24-60.62A150.29,150.29,0,0,0,129.14,244c-1.67-7.44-2.93-12.2-3.88-15.14-1.05-3.25-1.74-4.27-2.2-4.21a.33.33,0,0,0-.25.2,13.17,13.17,0,0,0-.68,3.24,2.38,2.38,0,0,0,0,.26c-.14.84-.33,1.79-.6,2.82l0,.1a87,87,0,0,0-16.55,14.31C93.82,258,88,271.52,84.51,283.92c-3-.24-7.89-10.47-8.93-20.43-1.11-10.52,2.62-15,14.29-42.89,7.08-16.9,14.2-35.49,14.3-35.75,0,0-.24-1.94-.75-5.33-1.58-10.35-5.74-34.28-13.55-58C83.75,103,81.68,103.61,73.53,80.68,67.36,63.32,66.77,57.94,60.35,50c-1.93-2.39-2.11-2.94-2.14-4C58,36.16,92.72,22,123.58,27.57c9.66.57,24.72,3.06,32.68,14.3A27.09,27.09,0,0,1,159.83,49c10.71,30.94,16.06,46.41,17.36,52.09,4.23,18.45,10.16,41.39,18.9,72.51,2.17,6.94,3.57,11.4,3.57,11.4,6.62,6.82,12.08,12,15.83,15.49,6.44,6,12.52,11.2,18.38,20.6l.51.83c5.55,9.07,11.28,18.67,14.81,32.38a111.44,111.44,0,0,1,2.8,16c1.12,8.94,1.33,17.13,1.63,28.89C254,312.1,253.32,317.93,249.19,320.7Z"/><path class="cls-2" d="M121.45,231.3a23.42,23.42,0,0,1-3,6.66A20.27,20.27,0,0,1,115,242c-10.82,9.61-21.45,19-26.17,30.64-2.74,6.73-2.2,11-4.08,11.24h-.26c3.49-12.4,9.31-26,20.39-38.31A87,87,0,0,1,121.45,231.3Z"/><path class="cls-2" d="M193.2,265.44c-.16-.61-.23-.92-.18-.93S193.13,264.83,193.2,265.44Z"/><path class="cls-2" d="M560.17,687.32s.07-.14.19-.41A43.59,43.59,0,0,1,554,697.24a48.66,48.66,0,0,1-10.28,9.23A49.87,49.87,0,0,0,560.17,687.32Z"/><path class="cls-2" d="M562,682.66c-.21.63-.42,1.2-.62,1.72C561.61,683.8,561.81,683.22,562,682.66Z"/><path class="cls-2" d="M564,674.81c-.29,1.63-.69,3.46-1.24,5.42-.1.32-.19.65-.29,1s-.21.69-.32,1l-.15.44c0,.16-.1.31-.16.46s-.07.2-.11.31-.13.36-.2.55l-.15.4c-.34.91-.64,1.65-.86,2.15a3.11,3.11,0,0,0-.12.3l0,.08c-.12.27-.19.41-.19.41a49.87,49.87,0,0,1-16.42,19.15C518.85,723.42,479,722.3,479,722.3h0q-5.14-7.35-10.2-15.06A614.79,614.79,0,0,1,414.64,604.6a146.94,146.94,0,0,1-33-10.2,77.45,77.45,0,0,1-14.52-8.14,61.62,61.62,0,0,1-14.74-15c1.68-1.65,4.11-4,7.08-6.76a299.19,299.19,0,0,1,31.39-25.84c9.05-6.44,17.34-11.47,25.47-16.19,1-12.38,4.64-18.45,4.41-34.49-.18-12.54-2.46-11.84-3.06-24.59-.4-8.63-1.77-38,13.79-47.48,5.07-3.11,12.5-4.46,15.32-1.54,2.56,2.66.18,7.66-.77,13.79-1.44,9.35,1.34,16.45,6.9,30.64,6.34,16.18,11.85,20.58,15.62,29.82a56.4,56.4,0,0,1,3.57,27.13c-1.22,8.66-4.1,11.58-5.41,16.58-3,11.66,5.65,22.47,21,43.85,22.23,30.95,9.07,15.35,25.66,37C525.69,629.2,542.56,650.33,564,674.81Z"/><path class="cls-2" d="M562.15,682.22a55.88,55.88,0,0,0,1.85-7.41A49.44,49.44,0,0,1,562.15,682.22Z"/></svg>