<?xml version="1.0" encoding="utf-8"?>
<!-- Generator: Adobe Illustrator 26.0.2, SVG Export Plug-In . SVG Version: 6.00 Build 0)  -->
<svg version="1.1" id="Calque_1" xmlns="http://www.w3.org/2000/svg" xmlns:xlink="http://www.w3.org/1999/xlink" x="0px" y="0px"
	 viewBox="0 0 317.4 240.7" style="enable-background:new 0 0 317.4 240.7;" xml:space="preserve">
<style type="text/css">
	.st0{fill:#FFFFFF;}
</style>
<g>
	<path class="st0" d="M317.4,90.7c-2.5,11-10.8,17.6-18.8,24.2c-7,5.9-15.5,6.2-23.9,2.6c-0.8-0.3-1.7-0.8-2.5-1.2
		c-0.1,0-0.2,0.1-0.1,0c-0.7,5.1-1,10.3-2.2,15.2c-2.4,10.6-8.4,19.2-16.3,26.4c-1.7,1.6-2.4,3.1-2.1,5.5c1.2,11.1-7.3,20.5-19,21.8
		c-0.9,0.1-1.8,0.1-3,0.2c0.1,6-1.5,11.4-5.7,15.8c-4.2,4.4-9.6,6.2-15.8,6.5c-0.2,1.9-0.2,3.9-0.5,5.7c-1.9,10.3-10.4,17.1-21,17.1
		c-1,0-2.4,0.6-3.1,1.3c-5.3,6.7-12.2,10.1-20.6,8.5c-8.6-1.7-14.2-7.2-16.5-15.8c-0.1-0.2-0.2-0.3-0.2-0.5
		c-13.9,5.5-26.8-1.2-30.1-15.7c-17.5,1.5-25.5-4.1-27.7-19.7c-0.8,0-1.7,0-2.7,0c-13.8,0.2-23.4-11.3-20.9-24.8
		c0.2-1.2-0.4-3-1.2-4c-3.6-4-7.6-7.6-11.3-11.5c-6.7-7-8.9-12.2-12.3-27.2c-3.8,0-7.5,0.2-11.1-0.1c-4.6-0.4-8.7-2.6-12.1-5.8
		c-3.6-3.4-7.1-6.9-10.5-10.5c-8.4-9-8.4-22.7-0.2-31.9c1.6-1.7,3.2-3.5,5-5.1c2.4-2.2,4.9-2.4,6.9-0.5c2,1.9,1.8,4.7-0.4,7.1
		c-1.3,1.4-2.8,2.7-4.1,4.2c-5.5,5.9-5.5,14.3,0,20.1c2.9,3.1,6,6,8.9,9c6.2,6,14.6,6,20.8,0c3.2-3.1,6.3-6.3,9.4-9.4
		c17.6-17.6,35-35,52.6-52.6c7.5-7.5,7.5-15.7,0.1-23c-2.4-2.4-4.8-4.9-7.2-7.2c-6.5-6.4-15-6.5-21.4,0
		C62.8,29.1,48.9,42.9,35.2,56.8c-0.8,0.8-1.6,1.7-2.6,2.2c-2.1,1.2-4.2,1.1-5.9-0.7c-1.6-1.7-1.7-3.7-0.3-5.6
		c0.5-0.7,1.1-1.2,1.7-1.8C41.8,37,55.5,23.3,69.2,9.5c11.1-11,25.1-11,36.1,0c0.9,0.9,1.8,2,2.9,2.8c6.9,6,12.2,13,11.8,22.3
		c5.9,0,11.4-0.5,16.9,0.2c6.7,0.8,13.3,2.7,20,4.1c1.1,0.2,2.2,0.6,3.2,0.3c12.4-3.6,24.9-4.3,37.9-1.2c-0.1-1-0.2-1.7-0.2-2.6
		c0.2-2.7,0-5.4,0.5-8c2.6-12,19.7-27,31-27.4c6.8-0.2,12.7,1.8,17.5,6.5c15.2,15.2,30.5,30.3,45.6,45.6c2.4,2.4,2.5,5.1,0.5,7.1
		c-2,2-4.8,1.7-7.4-0.8c-14.4-14.4-28.8-28.7-43.1-43.1c-8-8-15.9-8-23.9,0c-2.4,2.4-4.9,4.8-7.2,7.3c-5.8,6.1-5.9,14.6,0,20.6
		c21,21.1,42,42.2,63.1,63.1c5.9,5.8,14.4,5.6,20.4,0c3.1-2.9,6-5.9,9-8.9c5.8-6,5.7-14.5,0-20.6c-0.7-0.7-1.3-1.3-1.9-2
		c-1.7-2.1-1.7-4.6-0.1-6.5c1.8-1.9,4.4-2,6.6,0c4.1,3.6,7.1,8,8.4,13.4c0.2,0.6,0.4,1.2,0.6,1.7C317.4,85.7,317.4,88.2,317.4,90.7z
		 M147.3,176.1c12.8,2.7,19,10.5,18.9,23.2c13.3,1.3,20.5,8.6,21.3,21.9c4.8-0.3,8.3-2.6,10-6.9c1.9-4.6,0.7-8.9-2.8-12.5
		c-15.2-15.2-30.2-30.2-45.3-45.4c-0.8-0.8-1.7-1.6-2.3-2.5c-1.3-2-1.2-4,0.5-5.6c1.7-1.8,3.8-1.9,5.9-0.6c0.9,0.6,1.7,1.5,2.5,2.3
		c13.3,13.3,26.4,26.4,39.7,39.7c2,2,3.9,4.1,6,5.9c6.4,5.5,16.2,2.4,18.1-5.7c1-4.3-0.5-7.9-3.6-10.9
		c-14.8-14.8-29.6-29.6-44.5-44.5c-0.7-0.7-1.3-1.3-1.9-2c-1.7-2.1-1.7-4.7,0.1-6.5s4.4-1.7,6.5-0.1c0.8,0.7,1.5,1.4,2.2,2.2
		c14.8,14.8,29.6,29.6,44.5,44.5c4.6,4.6,11.6,4.6,15.9,0.4c4.6-4.6,4.6-11.3-0.2-16.1c-18.6-18.6-37.3-37.3-55.9-55.9
		c-0.8-0.7-2.1-1.4-3.1-1.5c-8.1-0.6-15.8-2.6-23.4-5.5c-1.3-0.5-3.2-0.4-4.6,0.1c-6.4,2.7-12.6,5.6-19,8.4
		c-12.3,5.2-25.8-0.1-31.1-12.1c-5.2-11.8,0.2-25.7,12.3-31.1c2.6-1.2,5.1-2.2,7.7-3.3c7.7-3.4,15.4-6.7,23.6-10.3
		c-0.8-0.4-1.2-0.7-1.5-0.7c-6.4-0.2-12.8-0.6-19.1-0.5c-4.3,0.1-8.4,1.1-10.4,5.6c-0.5,1-1.5,1.7-2.3,2.5
		c-20,20-39.8,39.9-59.9,59.8c-1.9,1.8-2.5,3.7-2.5,6.3c0.2,16,10.9,25.3,21.7,35.2c3.1-3.3,6-6.5,9.2-9.4
		c10.7-9.8,27.4-5.8,32.7,7.7c0.3,0.8,0.7,1.7,1,2.6c11.3-5.8,18-6.2,25.3-0.9C146.8,159.1,149.2,166.8,147.3,176.1z M247,151.2
		c10.2-9,15.7-20.3,15.1-34.3c-0.3-6.7-2.2-12.5-7.5-17.6C238.6,84,223,67.9,207.2,52.2c-1.1-1.1-2.4-2.1-3.7-2.6
		c-15-5.7-30.1-5.8-45,0.3c-13.5,5.5-26.8,11.7-40.2,17.6c-7.9,3.5-11.5,11.8-8.4,19c3.3,7.6,11.7,10.6,19.8,7
		c7-3.1,14-6.1,20.9-9.3c2.5-1.2,4.6-1,7,0.1c13.7,5.7,27.6,8.3,42.2,3.2c2.7-1,5.1,0.1,6,2.6c1,2.5-0.1,5-2.8,6
		c-2.9,1.1-5.9,1.8-8.7,2.7C211.9,116.3,229.4,133.7,247,151.2z M108.9,200.5c2.2-0.9,5-1.3,6.5-2.9c7.1-6.7,14.2-13.6,20.8-20.8
		c3.9-4.1,3.1-10.6-1.1-14.6c-4.1-3.9-10.5-4.5-14.6-0.7c-7,6.5-13.7,13.4-20.3,20.4c-3.1,3.3-3.3,7.5-1.4,11.6
		C100.8,197.6,104.1,199.8,108.9,200.5z M156.7,198c-0.3-6.1-2.4-9.6-6.6-11.5c-4.3-1.9-8.4-1.2-11.8,1.9c-3.3,3-6.4,6.2-9.4,9.4
		c-4.5,4.6-4.6,11.2-0.3,15.6c4.4,4.6,11.1,4.7,15.8,0.2c3.1-3,6.4-5.9,9.1-9.3C155.1,202.3,155.9,199.4,156.7,198z M105.6,159.6
		c-0.8-5.1-2.9-8.5-7.2-10.4c-4.2-1.8-8.4-1.3-11.8,1.8c-3.3,3.1-6.5,6.3-9.7,9.6c-4.4,4.6-4.2,11.2,0.1,15.6
		c4.3,4.3,11,4.4,15.6,0.1c3.1-3,6.4-5.9,9.1-9.3C103.4,164.9,104.3,162.2,105.6,159.6z M166.6,209.1c-6.2,0.1-11.5,5.3-11.5,11.4
		c0,6.1,4.9,11,11,11c6.3,0,11.6-5.1,11.6-11.3C177.9,213.8,173,209,166.6,209.1z"/>
</g>
</svg>
