<?xml version="1.0" encoding="utf-8"?>
<!-- Generator: Adobe Illustrator 26.0.2, SVG Export Plug-In . SVG Version: 6.00 Build 0)  -->
<svg version="1.1" id="Calque_1" xmlns="http://www.w3.org/2000/svg" xmlns:xlink="http://www.w3.org/1999/xlink" x="0px" y="0px"
	 viewBox="0 0 384 384" style="enable-background:new 0 0 384 384;" xml:space="preserve">
<style type="text/css">
	.st0{fill:#FFFFFF;}
</style>
<g>
	<path class="st0" d="M216.8,247c4.5-0.7,9.2-0.8,13.4-2.4c19-7.4,37.8-15.3,56.7-22.9c9.4-3.8,16.5-1.8,20,5.2
		c3.5,7.1,0.9,13.8-7.8,19.2c-21.1,13.2-42,26.8-63.5,39.2c-7.2,4.1-16.2,6.4-24.6,7c-15.9,1.1-31.9,0.6-47.8,0.2
		c-6.2-0.2-11,1.5-15.4,5.7c-3.8,3.6-7.8,7.1-12.2,9.8c-2,1.2-5.3,0.2-8,0.2c0.5-2.6,0-6.3,1.5-7.7c6.3-5.9,13.1-11.4,20.1-16.6
		c1.9-1.4,5.1-1.6,7.8-1.6c17.7-0.1,35.4,0.5,53-0.3c7.1-0.3,14.9-2.4,21-6c20.8-12.1,41.1-25.3,61.5-38.2c2-1.3,3.2-3.8,4.8-5.8
		c-2.6,0-5.5-0.8-7.8,0.1c-18.7,7.4-37.3,15.2-56,22.6c-3.8,1.5-8.2,2.6-12.2,2.3c-12.4-1.1-24.7-2.8-37-4.9
		c-2.6-0.4-4.7-3.4-7.1-5.1c2.4-2,4.4-5.2,7.1-5.9c6.9-1.9,14.2-2.4,21.2-4.3c2.5-0.7,4.3-3.8,6.5-5.7c-2.4-1.7-4.7-4.7-7.2-4.8
		c-17.4-0.4-34.9-0.4-52.3-0.1c-9.9,0.2-18.2,4.4-24.7,12.1c-12.9,15.2-26,30.2-39,45.3c-1.5,1.7-2.7,4-4.5,4.9
		c-2.5,1.3-5.5,1.5-8.3,2.2c0.2-3.1-0.5-6.7,1-9.1c2.7-4.4,6.6-8,10.1-12c10.7-12.4,21.6-24.7,32.2-37.3
		c9.4-11.3,21.4-16.6,35.9-16.7c15.2-0.1,30.4,0.1,45.6-0.1c8-0.1,15.7,0.5,20,8.6c4.2,8.1,1.1,14.8-5,20.8
		C216.1,245.5,216.5,246.3,216.8,247z"/>
	<path class="st0" d="M167.3,75c4.3,1.7,12.1,4.2,19.3,7.8c3.5,1.7,5.4,2.6,9.1,0.1c18.7-12.4,41.8-9.1,55.8,7.6
		c13.9,16.6,13,40.2-2.7,56.3c-16.8,17.3-34.2,34.1-51.1,51.3c-4.4,4.5-7.9,4.9-12.5,0.2c-17.3-17.6-35.1-34.7-52.1-52.5
		c-12.5-13.1-15.3-28.9-7.9-45.6C132.4,83.8,145.8,76.1,167.3,75z M192,188.3c16.7-16.6,33.7-32.9,50.1-50
		c11.6-12.1,10.8-30.8-0.5-42.6c-11.4-11.8-30.2-13.2-42.5-2.2c-5.9,5.3-9.5,5.5-15.4,0.1c-11.8-10.7-30-9.8-41.5,0.9
		c-11.6,10.9-14.3,29.7-3.6,41.2C155.4,153.9,173.9,170.6,192,188.3z"/>
</g>
</svg>
